<?xml version="1.0" encoding="UTF-8"?>
<svg id="Calque_1" data-name="Calque 1" xmlns="http://www.w3.org/2000/svg" viewBox="0 0 959.24 367.39">
  <defs>
    <style>
      .cls-1 {
        fill: #bfd7ea;
      }

      .cls-1, .cls-2, .cls-3 {
        isolation: isolate;
      }

      .cls-1, .cls-3 {
        font-family: Poppins-Black, Poppins;
        font-size: 135.24px;
        font-weight: 800;
      }

      .cls-4, .cls-3 {
        fill: #49516f;
      }
    </style>
  </defs>
  <g class="cls-2">
    <text class="cls-1" transform="translate(535.4 152.27)"><tspan x="0" y="0">Handi</tspan></text>
    <text class="cls-3" transform="translate(535.4 282.59)"><tspan x="0" y="0">Link</tspan></text>
  </g>
  <path class="cls-4" d="M501.37,29.17C483.44.28,447.98-6.5,417.75,5.94c-38.35,15.78-68.4,55.92-80.37,107.36-3.44,14.78-9.24,46.08-6.41,79.83-1.02.2-2.04.37-3.06.55V24.29h-86.8v170.42c-30.74-5.44-58.32-16.91-82.5-31.22V24.29h-86.8v64.35c-15.49-18.31-25.67-33.67-30.11-40.78L0,73.94c8.05,12.87,32.48,49.26,71.81,85.4v141.78h86.8v-82.04c24.85,11.93,52.39,21.08,82.5,25.43v56.61h86.8v-57.52c4.72-.73,9.43-1.53,14.12-2.47,10.71,24.08,32.37,42.83,61.73,53.22,16.36,5.79,33.88,8.63,50.83,8.63,10.2,0,20.18-1.03,29.57-3.07v-51.24c-15.19,6.11-40.9,7.49-64-.68-9.96-3.53-22.22-9.8-29.69-20.59,1.91-.71,3.81-1.45,5.69-2.2,58.8-23.37,106.95-69.07,115.95-133.85.41-2.92.72-5.86.93-8.8,1.29-18.47-1.91-37.65-11.67-53.38ZM450.45,123.93c-15.85,27.97-47.05,45.27-71,54.99-.44-17.12,1.5-35.86,5.83-54.47,6.47-27.78,23.31-61.56,51.19-73.03,4.08-1.68,8.12-2.53,11.67-2.53,2.53,0,4.81.43,6.69,1.31,1.29.6,5.21,2.44,7.74,10.5,6.24,19.84-2.17,45.67-12.12,63.23Z"/>
</svg>