<?xml version="1.0" encoding="utf-8"?>
<!-- Generator: Adobe Illustrator 26.0.1, SVG Export Plug-In . SVG Version: 6.00 Build 0)  -->
<svg version="1.1" id="Calque_1" xmlns="http://www.w3.org/2000/svg" xmlns:xlink="http://www.w3.org/1999/xlink" x="0px" y="0px"
	 viewBox="0 0 1500 1500" style="enable-background:new 0 0 1500 1500;" xml:space="preserve">
<style type="text/css">
	.st0{fill:#49516F;}
</style>
<g>
	<path class="st0" d="M842.74,614.05h42.98v49.37h40.85v-49.37h42.98v137.06h-42.98v-53.43h-40.85v53.43h-42.98V614.05z"/>
	<path class="st0" d="M1028.2,640.58c14.52,0,24.97,6.39,30.2,16.26v-14.91h42.78v109.19h-42.78v-14.91
		c-5.23,9.87-15.68,16.26-30.2,16.26c-25.17,0-45.11-20.71-45.11-55.95C983.09,661.29,1003.03,640.58,1028.2,640.58z
		 M1042.52,678.13c-8.9,0-15.87,6.39-15.87,18.39c0,12,6.97,18.39,15.87,18.39c8.91,0,15.87-6.39,15.87-18.39
		C1058.4,684.52,1051.43,678.13,1042.52,678.13z"/>
	<path class="st0" d="M1120.54,641.93h42.98v16.65c6.19-9.49,17.04-17.42,33.49-17.42c25.17,0,39.88,18.39,39.88,46.66v63.3h-42.78
		v-57.88c0-10.45-6-16.84-15.29-16.84c-9.49,0-15.29,6.39-15.29,16.84v57.88h-42.98V641.93z"/>
	<path class="st0" d="M1294.77,640.58c14.52,0,24.78,6.39,30.01,16.26v-48.98h42.98v143.26h-42.98v-14.91
		c-5.23,9.87-15.49,16.26-30.01,16.26c-25.17,0-45.11-20.71-45.11-55.95C1249.66,661.29,1269.6,640.58,1294.77,640.58z
		 M1309.1,678.13c-8.9,0-15.87,6.39-15.87,18.39c0,12,6.97,18.39,15.87,18.39c8.91,0,15.87-6.39,15.87-18.39
		C1324.97,684.52,1318,678.13,1309.1,678.13z"/>
	<path class="st0" d="M1384.02,612.12c0-12,9.49-21.49,24.78-21.49c15.1,0,24.59,9.49,24.59,21.49c0,11.81-9.49,21.1-24.59,21.1
		C1393.5,633.22,1384.02,623.93,1384.02,612.12z M1387.11,641.93h42.98v109.19h-42.98V641.93z"/>
	<path class="st0" d="M885.71,800.61v104.54h41.43v32.52h-84.41V800.61H885.71z"/>
	<path class="st0" d="M937.6,798.67c0-12,9.49-21.49,24.78-21.49c15.1,0,24.59,9.48,24.59,21.49c0,11.81-9.49,21.1-24.59,21.1
		C947.08,819.77,937.6,810.48,937.6,798.67z M940.69,828.48h42.98v109.19h-42.98V828.48z"/>
	<path class="st0" d="M1003.03,828.48h42.98v16.65c6.19-9.49,17.04-17.42,33.49-17.42c25.17,0,39.88,18.39,39.88,46.66v63.3h-42.78
		v-57.88c0-10.45-6-16.84-15.29-16.84c-9.49,0-15.29,6.39-15.29,16.84v57.88h-42.98V828.48z"/>
	<path class="st0" d="M1137.96,794.41h42.98v74.92l27.3-40.85h49.95l-40.85,54.98l41.81,54.2h-51.3l-26.91-43.56v43.56h-42.98
		V794.41z"/>
	<g>
		<path class="st0" d="M784.34,574.91c-25.67-41.36-76.42-51.06-119.7-33.26c-54.9,22.59-97.91,80.05-115.05,153.68
			c-4.93,21.16-13.22,65.96-9.18,114.27c-1.46,0.28-2.92,0.52-4.38,0.79V567.91H411.77v243.95c-44-7.78-83.48-24.21-118.1-44.69
			V567.91H169.41v92.11c-22.17-26.21-36.75-48.2-43.11-58.37l-59.69,37.33c11.52,18.42,46.49,70.51,102.8,122.25V964.2h124.26
			V846.75c35.57,17.08,74.99,30.18,118.1,36.41v81.04h124.26v-82.34c6.76-1.04,13.5-2.2,20.21-3.54
			c15.33,34.47,46.33,61.31,88.36,76.18c23.42,8.29,48.5,12.35,72.76,12.35c14.6,0,28.89-1.48,42.33-4.39v-73.34
			c-21.75,8.75-58.55,10.72-91.61-0.98c-14.26-5.05-31.81-14.03-42.5-29.47c2.73-1.02,5.45-2.07,8.15-3.14
			c84.18-33.46,153.09-98.87,165.99-191.6c0.58-4.18,1.03-8.39,1.33-12.6C802.89,624.88,798.32,597.43,784.34,574.91z
			 M711.44,710.55c-22.69,40.03-67.35,64.81-101.64,78.72c-0.63-24.5,2.15-51.34,8.35-77.97c9.26-39.77,33.37-88.12,73.28-104.54
			c5.84-2.41,11.63-3.63,16.71-3.63c3.62,0,6.89,0.62,9.57,1.88c1.85,0.86,7.46,3.49,11.08,15.03
			C737.73,648.44,725.69,685.41,711.44,710.55z"/>
	</g>
</g>
</svg>
