<svg width="1367" height="434" viewBox="0 0 1367 434" fill="none" xmlns="http://www.w3.org/2000/svg">
<path d="M776.133 80.9043H819.113V130.274H859.963V80.9043H902.943V217.964H859.963V164.534H819.113V217.964H776.133V80.9043Z" fill="#49516F"/>
<path d="M961.586 107.436C976.106 107.436 986.557 113.826 991.787 123.696V108.786H1034.57V217.976H991.787V203.066C986.557 212.936 976.106 219.326 961.586 219.326C936.416 219.326 916.477 198.616 916.477 163.376C916.477 128.146 936.416 107.436 961.586 107.436ZM975.907 144.986C967.007 144.986 960.037 151.376 960.037 163.376C960.037 175.376 967.007 181.766 975.907 181.766C984.817 181.766 991.777 175.376 991.777 163.376C991.787 151.376 984.817 144.986 975.907 144.986Z" fill="#49516F"/>
<path d="M1053.93 108.786H1096.91V125.436C1103.1 115.946 1113.95 108.016 1130.4 108.016C1155.57 108.016 1170.28 126.406 1170.28 154.676V217.976H1127.5V160.096C1127.5 149.646 1121.5 143.256 1112.21 143.256C1102.72 143.256 1096.92 149.646 1096.92 160.096V217.976H1053.94V108.786H1053.93Z" fill="#49516F"/>
<path d="M1228.16 107.435C1242.68 107.435 1252.94 113.825 1258.17 123.695V74.7148H1301.15V217.975H1258.17V203.065C1252.94 212.935 1242.68 219.325 1228.16 219.325C1202.99 219.325 1183.05 198.615 1183.05 163.375C1183.05 128.145 1202.99 107.435 1228.16 107.435ZM1242.49 144.985C1233.59 144.985 1226.62 151.375 1226.62 163.375C1226.62 175.375 1233.59 181.765 1242.49 181.765C1251.4 181.765 1258.36 175.375 1258.36 163.375C1258.36 151.375 1251.39 144.985 1242.49 144.985Z" fill="#49516F"/>
<path d="M1317.41 78.9744C1317.41 66.9744 1326.9 57.4844 1342.19 57.4844C1357.29 57.4844 1366.78 66.9744 1366.78 78.9744C1366.78 90.7844 1357.29 100.074 1342.19 100.074C1326.89 100.074 1317.41 90.7844 1317.41 78.9744ZM1320.5 108.784H1363.48V217.974H1320.5V108.784Z" fill="#49516F"/>
<path d="M819.097 267.465V372.005H860.527V404.525H776.117V267.465H819.097Z" fill="#49516F"/>
<path d="M870.992 265.525C870.992 253.525 880.482 244.035 895.772 244.035C910.872 244.035 920.362 253.515 920.362 265.525C920.362 277.335 910.872 286.625 895.772 286.625C880.472 286.625 870.992 277.335 870.992 265.525ZM874.082 295.335H917.062V404.525H874.082V295.335Z" fill="#49516F"/>
<path d="M936.422 295.334H979.402V311.984C985.592 302.494 996.442 294.564 1012.89 294.564C1038.06 294.564 1052.77 312.954 1052.77 341.224V404.524H1009.99V346.644C1009.99 336.194 1003.99 329.804 994.702 329.804C985.212 329.804 979.412 336.194 979.412 346.644V404.524H936.432V295.334H936.422Z" fill="#49516F"/>
<path d="M1071.35 261.266H1114.33V336.186L1141.63 295.336H1191.58L1150.73 350.316L1192.54 404.516H1141.24L1114.33 360.956V404.516H1071.35V261.266Z" fill="#49516F"/>
<path d="M717.73 41.765C692.06 0.404972 641.31 -9.29497 598.03 8.50503C543.13 31.095 500.12 88.555 482.98 162.185C478.05 183.345 469.76 228.145 473.8 276.455C472.34 276.735 470.88 276.975 469.42 277.245V34.765H345.16V278.715C301.16 270.935 261.68 254.505 227.06 234.025V34.765H102.8V126.875C80.63 100.665 66.05 78.675 59.69 68.505L0 105.835C11.52 124.255 46.49 176.345 102.8 228.085V431.055H227.06V313.605C262.63 330.685 302.05 343.785 345.16 350.015V431.055H469.42V348.715C476.18 347.675 482.92 346.515 489.63 345.175C504.96 379.645 535.96 406.485 577.99 421.355C601.41 429.645 626.49 433.705 650.75 433.705C665.35 433.705 679.64 432.225 693.08 429.315V355.975C671.33 364.725 634.53 366.695 601.47 354.995C587.21 349.945 569.66 340.965 558.97 325.525C561.7 324.505 564.42 323.455 567.12 322.385C651.3 288.925 720.21 223.515 733.11 130.785C733.69 126.605 734.14 122.395 734.44 118.185C736.28 91.735 731.71 64.285 717.73 41.765ZM644.83 177.405C622.14 217.435 577.48 242.215 543.19 256.125C542.56 231.625 545.34 204.785 551.54 178.155C560.8 138.385 584.91 90.035 624.82 73.615C630.66 71.205 636.45 69.985 641.53 69.985C645.15 69.985 648.42 70.605 651.1 71.865C652.95 72.725 658.56 75.355 662.18 86.895C671.12 115.295 659.08 152.265 644.83 177.405Z" fill="#49516F"/>
</svg>
