<svg width="735" height="434" viewBox="0 0 735 434" fill="none" xmlns="http://www.w3.org/2000/svg">
<path d="M717.73 41.765C692.06 0.404972 641.31 -9.29497 598.03 8.50503C543.13 31.095 500.12 88.555 482.98 162.185C478.05 183.345 469.76 228.145 473.8 276.455C472.34 276.735 470.88 276.975 469.42 277.245V34.765H345.16V278.715C301.16 270.935 261.68 254.505 227.06 234.025V34.765H102.8V126.875C80.63 100.665 66.05 78.675 59.69 68.505L0 105.835C11.52 124.255 46.49 176.345 102.8 228.085V431.055H227.06V313.605C262.63 330.685 302.05 343.785 345.16 350.015V431.055H469.42V348.715C476.18 347.675 482.92 346.515 489.63 345.175C504.96 379.645 535.96 406.485 577.99 421.355C601.41 429.645 626.49 433.705 650.75 433.705C665.35 433.705 679.64 432.225 693.08 429.315V355.975C671.33 364.725 634.53 366.695 601.47 354.995C587.21 349.945 569.66 340.965 558.97 325.525C561.7 324.505 564.42 323.455 567.12 322.385C651.3 288.925 720.21 223.515 733.11 130.785C733.69 126.605 734.14 122.395 734.44 118.185C736.28 91.735 731.71 64.285 717.73 41.765ZM644.83 177.405C622.14 217.435 577.48 242.215 543.19 256.125C542.56 231.625 545.34 204.785 551.54 178.155C560.8 138.385 584.91 90.035 624.82 73.615C630.66 71.205 636.45 69.985 641.53 69.985C645.15 69.985 648.42 70.605 651.1 71.865C652.95 72.725 658.56 75.355 662.18 86.895C671.12 115.295 659.08 152.265 644.83 177.405Z" fill="#49516F"/>
</svg>
